<svg width="20" height="20" viewBox="0 0 20 20" fill="none" xmlns="http://www.w3.org/2000/svg">
<path fill-rule="evenodd" clip-rule="evenodd" d="M10 0C8.89543 0 8 0.895431 8 2V7C8 7.55228 7.55228 8 7 8H2C0.895431 8 0 8.89543 0 10C0 11.1046 0.895431 12 2 12H7C7.55228 12 8 12.4477 8 13V18C8 19.1046 8.89543 20 10 20C11.1046 20 12 19.1046 12 18V13C12 12.4477 12.4477 12 13 12H18C19.1046 12 20 11.1046 20 10C20 8.89543 19.1046 8 18 8H13C12.4477 8 12 7.55228 12 7V2C12 0.895431 11.1046 0 10 0Z" fill="black"/>
</svg>
