<svg width="24" height="28" viewBox="0 0 24 28" fill="none" xmlns="http://www.w3.org/2000/svg">
<g filter="url(#filter0_d_4_126)">
<mask id="path-1-inside-1_4_126" fill="white">
<path fill-rule="evenodd" clip-rule="evenodd" d="M4.00097 18C9.52382 18 14.001 13.5228 14.001 8C14.001 4.7288 12.4303 1.82446 10.0019 4.65948e-08C15.5243 0.000527406 20.001 4.47748 20.001 10C20.001 15.5228 15.5238 20 10.001 20C7.74932 20 5.67149 19.2558 4 18C4.00032 18 4.00065 18 4.00097 18Z"/>
</mask>
<path fill-rule="evenodd" clip-rule="evenodd" d="M4.00097 18C9.52382 18 14.001 13.5228 14.001 8C14.001 4.7288 12.4303 1.82446 10.0019 4.65948e-08C15.5243 0.000527406 20.001 4.47748 20.001 10C20.001 15.5228 15.5238 20 10.001 20C7.74932 20 5.67149 19.2558 4 18C4.00032 18 4.00065 18 4.00097 18Z" fill="white"/>
<path d="M10.0019 4.65948e-08L10.002 -1L7.00578 -1.00029L9.40127 0.799493L10.0019 4.65948e-08ZM4 18V17H1.00421L3.39933 18.7995L4 18ZM13.001 8C13.001 12.9706 8.97153 17 4.00097 17V19C10.0761 19 15.001 14.0751 15.001 8H13.001ZM9.40127 0.799493C11.589 2.4432 13.001 5.05657 13.001 8H15.001C15.001 4.40104 13.2715 1.20572 10.6026 -0.799493L9.40127 0.799493ZM10.0019 1C14.972 1.00047 19.001 5.02973 19.001 10H21.001C21.001 3.92522 16.0767 -0.99942 10.002 -1L10.0019 1ZM19.001 10C19.001 14.9706 14.9715 19 10.001 19V21C16.0761 21 21.001 16.0751 21.001 10H19.001ZM10.001 19C7.97334 19 6.10492 18.3307 4.60068 17.2005L3.39933 18.7995C5.23806 20.181 7.5253 21 10.001 21V19ZM4.00097 17C4.00097 17 4.00097 17 4.00097 17C4.00097 17 4.00097 17 4.00097 17C4.00097 17 4.00097 17 4.00097 17C4.00096 17 4.00096 17 4.00096 17C4.00096 17 4.00096 17 4.00096 17C4.00096 17 4.00096 17 4.00096 17C4.00096 17 4.00096 17 4.00096 17C4.00096 17 4.00096 17 4.00096 17C4.00096 17 4.00095 17 4.00095 17C4.00095 17 4.00095 17 4.00095 17C4.00095 17 4.00095 17 4.00095 17C4.00095 17 4.00095 17 4.00095 17C4.00095 17 4.00095 17 4.00095 17C4.00095 17 4.00094 17 4.00094 17C4.00094 17 4.00094 17 4.00094 17C4.00094 17 4.00094 17 4.00094 17C4.00094 17 4.00094 17 4.00094 17C4.00094 17 4.00094 17 4.00094 17C4.00094 17 4.00094 17 4.00093 17C4.00093 17 4.00093 17 4.00093 17C4.00093 17 4.00093 17 4.00093 17C4.00093 17 4.00093 17 4.00093 17C4.00093 17 4.00093 17 4.00093 17C4.00093 17 4.00093 17 4.00093 17C4.00092 17 4.00092 17 4.00092 17C4.00092 17 4.00092 17 4.00092 17C4.00092 17 4.00092 17 4.00092 17C4.00092 17 4.00092 17 4.00092 17C4.00092 17 4.00092 17 4.00092 17C4.00092 17 4.00091 17 4.00091 17C4.00091 17 4.00091 17 4.00091 17C4.00091 17 4.00091 17 4.00091 17C4.00091 17 4.00091 17 4.00091 17C4.00091 17 4.00091 17 4.00091 17C4.00091 17 4.00091 17 4.0009 17C4.0009 17 4.0009 17 4.0009 17C4.0009 17 4.0009 17 4.0009 17C4.0009 17 4.0009 17 4.0009 17C4.0009 17 4.0009 17 4.0009 17C4.0009 17 4.0009 17 4.0009 17C4.00089 17 4.00089 17 4.00089 17C4.00089 17 4.00089 17 4.00089 17C4.00089 17 4.00089 17 4.00089 17C4.00089 17 4.00089 17 4.00089 17C4.00089 17 4.00089 17 4.00089 17C4.00088 17 4.00088 17 4.00088 17C4.00088 17 4.00088 17 4.00088 17C4.00088 17 4.00088 17 4.00088 17C4.00088 17 4.00088 17 4.00088 17C4.00088 17 4.00088 17 4.00088 17C4.00088 17 4.00087 17 4.00087 17C4.00087 17 4.00087 17 4.00087 17C4.00087 17 4.00087 17 4.00087 17C4.00087 17 4.00087 17 4.00087 17C4.00087 17 4.00087 17 4.00087 17C4.00087 17 4.00087 17 4.00086 17C4.00086 17 4.00086 17 4.00086 17C4.00086 17 4.00086 17 4.00086 17C4.00086 17 4.00086 17 4.00086 17C4.00086 17 4.00086 17 4.00086 17C4.00086 17 4.00086 17 4.00086 17C4.00085 17 4.00085 17 4.00085 17C4.00085 17 4.00085 17 4.00085 17C4.00085 17 4.00085 17 4.00085 17C4.00085 17 4.00085 17 4.00085 17C4.00085 17 4.00085 17 4.00085 17C4.00085 17 4.00084 17 4.00084 17C4.00084 17 4.00084 17 4.00084 17C4.00084 17 4.00084 17 4.00084 17C4.00084 17 4.00084 17 4.00084 17C4.00084 17 4.00084 17 4.00084 17C4.00084 17 4.00084 17 4.00083 17C4.00083 17 4.00083 17 4.00083 17C4.00083 17 4.00083 17 4.00083 17C4.00083 17 4.00083 17 4.00083 17C4.00083 17 4.00083 17 4.00083 17C4.00083 17 4.00083 17 4.00082 17C4.00082 17 4.00082 17 4.00082 17C4.00082 17 4.00082 17 4.00082 17C4.00082 17 4.00082 17 4.00082 17C4.00082 17 4.00082 17 4.00082 17C4.00082 17 4.00082 17 4.00082 17C4.00081 17 4.00081 17 4.00081 17C4.00081 17 4.00081 17 4.00081 17C4.00081 17 4.00081 17 4.00081 17C4.00081 17 4.00081 17 4.00081 17C4.00081 17 4.00081 17 4.00081 17C4.00081 17 4.0008 17 4.0008 17C4.0008 17 4.0008 17 4.0008 17C4.0008 17 4.0008 17 4.0008 17C4.0008 17 4.0008 17 4.0008 17C4.0008 17 4.0008 17 4.0008 17C4.0008 17 4.0008 17 4.00079 17C4.00079 17 4.00079 17 4.00079 17C4.00079 17 4.00079 17 4.00079 17C4.00079 17 4.00079 17 4.00079 17C4.00079 17 4.00079 17 4.00079 17C4.00079 17 4.00079 17 4.00079 17C4.00078 17 4.00078 17 4.00078 17C4.00078 17 4.00078 17 4.00078 17C4.00078 17 4.00078 17 4.00078 17C4.00078 17 4.00078 17 4.00078 17C4.00078 17 4.00078 17 4.00078 17C4.00078 17 4.00077 17 4.00077 17C4.00077 17 4.00077 17 4.00077 17C4.00077 17 4.00077 17 4.00077 17C4.00077 17 4.00077 17 4.00077 17C4.00077 17 4.00077 17 4.00077 17C4.00077 17 4.00076 17 4.00076 17C4.00076 17 4.00076 17 4.00076 17C4.00076 17 4.00076 17 4.00076 17C4.00076 17 4.00076 17 4.00076 17C4.00076 17 4.00076 17 4.00076 17C4.00076 17 4.00076 17 4.00075 17C4.00075 17 4.00075 17 4.00075 17C4.00075 17 4.00075 17 4.00075 17C4.00075 17 4.00075 17 4.00075 17C4.00075 17 4.00075 17 4.00075 17C4.00075 17 4.00075 17 4.00075 17C4.00074 17 4.00074 17 4.00074 17C4.00074 17 4.00074 17 4.00074 17C4.00074 17 4.00074 17 4.00074 17C4.00074 17 4.00074 17 4.00074 17C4.00074 17 4.00074 17 4.00074 17C4.00074 17 4.00073 17 4.00073 17C4.00073 17 4.00073 17 4.00073 17C4.00073 17 4.00073 17 4.00073 17C4.00073 17 4.00073 17 4.00073 17C4.00073 17 4.00073 17 4.00073 17C4.00073 17 4.00073 17 4.00072 17C4.00072 17 4.00072 17 4.00072 17C4.00072 17 4.00072 17 4.00072 17C4.00072 17 4.00072 17 4.00072 17C4.00072 17 4.00072 17 4.00072 17C4.00072 17 4.00072 17 4.00072 17C4.00071 17 4.00071 17 4.00071 17C4.00071 17 4.00071 17 4.00071 17C4.00071 17 4.00071 17 4.00071 17C4.00071 17 4.00071 17 4.00071 17C4.00071 17 4.00071 17 4.00071 17C4.0007 17 4.0007 17 4.0007 17C4.0007 17 4.0007 17 4.0007 17C4.0007 17 4.0007 17 4.0007 17C4.0007 17 4.0007 17 4.0007 17C4.0007 17 4.0007 17 4.0007 17C4.0007 17 4.00069 17 4.00069 17C4.00069 17 4.00069 17 4.00069 17C4.00069 17 4.00069 17 4.00069 17C4.00069 17 4.00069 17 4.00069 17C4.00069 17 4.00069 17 4.00069 17C4.00069 17 4.00069 17 4.00068 17C4.00068 17 4.00068 17 4.00068 17C4.00068 17 4.00068 17 4.00068 17C4.00068 17 4.00068 17 4.00068 17C4.00068 17 4.00068 17 4.00068 17C4.00068 17 4.00068 17 4.00068 17C4.00067 17 4.00067 17 4.00067 17C4.00067 17 4.00067 17 4.00067 17C4.00067 17 4.00067 17 4.00067 17C4.00067 17 4.00067 17 4.00067 17C4.00067 17 4.00067 17 4.00067 17C4.00067 17 4.00066 17 4.00066 17C4.00066 17 4.00066 17 4.00066 17C4.00066 17 4.00066 17 4.00066 17C4.00066 17 4.00066 17 4.00066 17C4.00066 17 4.00066 17 4.00066 17C4.00066 17 4.00066 17 4.00065 17C4.00065 17 4.00065 17 4.00065 17C4.00065 17 4.00065 17 4.00065 17C4.00065 17 4.00065 17 4.00065 17C4.00065 17 4.00065 17 4.00065 17C4.00065 17 4.00065 17 4.00064 17C4.00064 17 4.00064 17 4.00064 17C4.00064 17 4.00064 17 4.00064 17C4.00064 17 4.00064 17 4.00064 17C4.00064 17 4.00064 17 4.00064 17C4.00064 17 4.00064 17 4.00064 17C4.00063 17 4.00063 17 4.00063 17C4.00063 17 4.00063 17 4.00063 17C4.00063 17 4.00063 17 4.00063 17C4.00063 17 4.00063 17 4.00063 17C4.00063 17 4.00063 17 4.00063 17C4.00063 17 4.00062 17 4.00062 17C4.00062 17 4.00062 17 4.00062 17C4.00062 17 4.00062 17 4.00062 17C4.00062 17 4.00062 17 4.00062 17C4.00062 17 4.00062 17 4.00062 17C4.00062 17 4.00062 17 4.00061 17C4.00061 17 4.00061 17 4.00061 17C4.00061 17 4.00061 17 4.00061 17C4.00061 17 4.00061 17 4.00061 17C4.00061 17 4.00061 17 4.00061 17C4.00061 17 4.00061 17 4.00061 17C4.0006 17 4.0006 17 4.0006 17C4.0006 17 4.0006 17 4.0006 17C4.0006 17 4.0006 17 4.0006 17C4.0006 17 4.0006 17 4.0006 17C4.0006 17 4.0006 17 4.0006 17C4.0006 17 4.00059 17 4.00059 17C4.00059 17 4.00059 17 4.00059 17C4.00059 17 4.00059 17 4.00059 17C4.00059 17 4.00059 17 4.00059 17C4.00059 17 4.00059 17 4.00059 17C4.00059 17 4.00058 17 4.00058 17C4.00058 17 4.00058 17 4.00058 17C4.00058 17 4.00058 17 4.00058 17C4.00058 17 4.00058 17 4.00058 17C4.00058 17 4.00058 17 4.00058 17C4.00058 17 4.00058 17 4.00057 17C4.00057 17 4.00057 17 4.00057 17C4.00057 17 4.00057 17 4.00057 17C4.00057 17 4.00057 17 4.00057 17C4.00057 17 4.00057 17 4.00057 17C4.00057 17 4.00057 17 4.00057 17C4.00056 17 4.00056 17 4.00056 17C4.00056 17 4.00056 17 4.00056 17C4.00056 17 4.00056 17 4.00056 17C4.00056 17 4.00056 17 4.00056 17C4.00056 17 4.00056 17 4.00056 17C4.00056 17 4.00055 17 4.00055 17C4.00055 17 4.00055 17 4.00055 17C4.00055 17 4.00055 17 4.00055 17C4.00055 17 4.00055 17 4.00055 17C4.00055 17 4.00055 17 4.00055 17C4.00055 17 4.00055 17 4.00054 17C4.00054 17 4.00054 17 4.00054 17C4.00054 17 4.00054 17 4.00054 17C4.00054 17 4.00054 17 4.00054 17C4.00054 17 4.00054 17 4.00054 17C4.00054 17 4.00054 17 4.00054 17C4.00053 17 4.00053 17 4.00053 17C4.00053 17 4.00053 17 4.00053 17C4.00053 17 4.00053 17 4.00053 17C4.00053 17 4.00053 17 4.00053 17C4.00053 17 4.00053 17 4.00053 17C4.00052 17 4.00052 17 4.00052 17C4.00052 17 4.00052 17 4.00052 17C4.00052 17 4.00052 17 4.00052 17C4.00052 17 4.00052 17 4.00052 17C4.00052 17 4.00052 17 4.00052 17C4.00052 17 4.00051 17 4.00051 17C4.00051 17 4.00051 17 4.00051 17C4.00051 17 4.00051 17 4.00051 17C4.00051 17 4.00051 17 4.00051 17C4.00051 17 4.00051 17 4.00051 17C4.00051 17 4.00051 17 4.0005 17C4.0005 17 4.0005 17 4.0005 17C4.0005 17 4.0005 17 4.0005 17C4.0005 17 4.0005 17 4.0005 17C4.0005 17 4.0005 17 4.0005 17C4.0005 17 4.0005 17 4.0005 17C4.00049 17 4.00049 17 4.00049 17C4.00049 17 4.00049 17 4.00049 17C4.00049 17 4.00049 17 4.00049 17C4.00049 17 4.00049 17 4.00049 17C4.00049 17 4.00049 17 4.00049 17C4.00049 17 4.00048 17 4.00048 17C4.00048 17 4.00048 17 4.00048 17C4.00048 17 4.00048 17 4.00048 17C4.00048 17 4.00048 17 4.00048 17C4.00048 17 4.00048 17 4.00048 17C4.00048 17 4.00048 17 4.00047 17C4.00047 17 4.00047 17 4.00047 17C4.00047 17 4.00047 17 4.00047 17C4.00047 17 4.00047 17 4.00047 17C4.00047 17 4.00047 17 4.00047 17C4.00047 17 4.00047 17 4.00046 17C4.00046 17 4.00046 17 4.00046 17C4.00046 17 4.00046 17 4.00046 17C4.00046 17 4.00046 17 4.00046 17C4.00046 17 4.00046 17 4.00046 17C4.00046 17 4.00046 17 4.00046 17C4.00045 17 4.00045 17 4.00045 17C4.00045 17 4.00045 17 4.00045 17C4.00045 17 4.00045 17 4.00045 17C4.00045 17 4.00045 17 4.00045 17C4.00045 17 4.00045 17 4.00045 17C4.00045 17 4.00044 17 4.00044 17C4.00044 17 4.00044 17 4.00044 17C4.00044 17 4.00044 17 4.00044 17C4.00044 17 4.00044 17 4.00044 17C4.00044 17 4.00044 17 4.00044 17C4.00044 17 4.00044 17 4.00043 17C4.00043 17 4.00043 17 4.00043 17C4.00043 17 4.00043 17 4.00043 17C4.00043 17 4.00043 17 4.00043 17C4.00043 17 4.00043 17 4.00043 17C4.00043 17 4.00043 17 4.00043 17C4.00042 17 4.00042 17 4.00042 17C4.00042 17 4.00042 17 4.00042 17C4.00042 17 4.00042 17 4.00042 17C4.00042 17 4.00042 17 4.00042 17C4.00042 17 4.00042 17 4.00042 17C4.00042 17 4.00041 17 4.00041 17C4.00041 17 4.00041 17 4.00041 17C4.00041 17 4.00041 17 4.00041 17C4.00041 17 4.00041 17 4.00041 17C4.00041 17 4.00041 17 4.00041 17C4.00041 17 4.0004 17 4.0004 17C4.0004 17 4.0004 17 4.0004 17C4.0004 17 4.0004 17 4.0004 17C4.0004 17 4.0004 17 4.0004 17C4.0004 17 4.0004 17 4.0004 17C4.0004 17 4.0004 17 4.00039 17C4.00039 17 4.00039 17 4.00039 17C4.00039 17 4.00039 17 4.00039 17C4.00039 17 4.00039 17 4.00039 17C4.00039 17 4.00039 17 4.00039 17C4.00039 17 4.00039 17 4.00039 17C4.00038 17 4.00038 17 4.00038 17C4.00038 17 4.00038 17 4.00038 17C4.00038 17 4.00038 17 4.00038 17C4.00038 17 4.00038 17 4.00038 17C4.00038 17 4.00038 17 4.00038 17C4.00038 17 4.00037 17 4.00037 17C4.00037 17 4.00037 17 4.00037 17C4.00037 17 4.00037 17 4.00037 17C4.00037 17 4.00037 17 4.00037 17C4.00037 17 4.00037 17 4.00037 17C4.00037 17 4.00037 17 4.00036 17C4.00036 17 4.00036 17 4.00036 17C4.00036 17 4.00036 17 4.00036 17C4.00036 17 4.00036 17 4.00036 17C4.00036 17 4.00036 17 4.00036 17C4.00036 17 4.00036 17 4.00036 17C4.00035 17 4.00035 17 4.00035 17C4.00035 17 4.00035 17 4.00035 17C4.00035 17 4.00035 17 4.00035 17C4.00035 17 4.00035 17 4.00035 17C4.00035 17 4.00035 17 4.00035 17C4.00034 17 4.00034 17 4.00034 17C4.00034 17 4.00034 17 4.00034 17C4.00034 17 4.00034 17 4.00034 17C4.00034 17 4.00034 17 4.00034 17C4.00034 17 4.00034 17 4.00034 17C4.00034 17 4.00033 17 4.00033 17C4.00033 17 4.00033 17 4.00033 17C4.00033 17 4.00033 17 4.00033 17C4.00033 17 4.00033 17 4.00033 17C4.00033 17 4.00033 17 4.00033 17C4.00033 17 4.00033 17 4.00032 17C4.00032 17 4.00032 17 4.00032 17C4.00032 17 4.00032 17 4.00032 17C4.00032 17 4.00032 17 4.00032 17C4.00032 17 4.00032 17 4.00032 17C4.00032 17 4.00032 17 4.00032 17C4.00031 17 4.00031 17 4.00031 17C4.00031 17 4.00031 17 4.00031 17C4.00031 17 4.00031 17 4.00031 17C4.00031 17 4.00031 17 4.00031 17C4.00031 17 4.00031 17 4.00031 17C4.00031 17 4.0003 17 4.0003 17C4.0003 17 4.0003 17 4.0003 17C4.0003 17 4.0003 17 4.0003 17C4.0003 17 4.0003 17 4.0003 17C4.0003 17 4.0003 17 4.0003 17C4.0003 17 4.0003 17 4.00029 17C4.00029 17 4.00029 17 4.00029 17C4.00029 17 4.00029 17 4.00029 17C4.00029 17 4.00029 17 4.00029 17C4.00029 17 4.00029 17 4.00029 17C4.00029 17 4.00029 17 4.00028 17C4.00028 17 4.00028 17 4.00028 17C4.00028 17 4.00028 17 4.00028 17C4.00028 17 4.00028 17 4.00028 17C4.00028 17 4.00028 17 4.00028 17C4.00028 17 4.00028 17 4.00028 17C4.00027 17 4.00027 17 4.00027 17C4.00027 17 4.00027 17 4.00027 17C4.00027 17 4.00027 17 4.00027 17C4.00027 17 4.00027 17 4.00027 17C4.00027 17 4.00027 17 4.00027 17C4.00027 17 4.00026 17 4.00026 17C4.00026 17 4.00026 17 4.00026 17C4.00026 17 4.00026 17 4.00026 17C4.00026 17 4.00026 17 4.00026 17C4.00026 17 4.00026 17 4.00026 17C4.00026 17 4.00026 17 4.00025 17C4.00025 17 4.00025 17 4.00025 17C4.00025 17 4.00025 17 4.00025 17C4.00025 17 4.00025 17 4.00025 17C4.00025 17 4.00025 17 4.00025 17C4.00025 17 4.00025 17 4.00025 17C4.00024 17 4.00024 17 4.00024 17C4.00024 17 4.00024 17 4.00024 17C4.00024 17 4.00024 17 4.00024 17C4.00024 17 4.00024 17 4.00024 17C4.00024 17 4.00024 17 4.00024 17C4.00024 17 4.00023 17 4.00023 17C4.00023 17 4.00023 17 4.00023 17C4.00023 17 4.00023 17 4.00023 17C4.00023 17 4.00023 17 4.00023 17C4.00023 17 4.00023 17 4.00023 17C4.00023 17 4.00022 17 4.00022 17C4.00022 17 4.00022 17 4.00022 17C4.00022 17 4.00022 17 4.00022 17C4.00022 17 4.00022 17 4.00022 17C4.00022 17 4.00022 17 4.00022 17C4.00022 17 4.00022 17 4.00021 17C4.00021 17 4.00021 17 4.00021 17C4.00021 17 4.00021 17 4.00021 17C4.00021 17 4.00021 17 4.00021 17C4.00021 17 4.00021 17 4.00021 17C4.00021 17 4.00021 17 4.00021 17C4.0002 17 4.0002 17 4.0002 17C4.0002 17 4.0002 17 4.0002 17C4.0002 17 4.0002 17 4.0002 17C4.0002 17 4.0002 17 4.0002 17C4.0002 17 4.0002 17 4.0002 17C4.0002 17 4.00019 17 4.00019 17C4.00019 17 4.00019 17 4.00019 17C4.00019 17 4.00019 17 4.00019 17C4.00019 17 4.00019 17 4.00019 17C4.00019 17 4.00019 17 4.00019 17C4.00019 17 4.00019 17 4.00018 17C4.00018 17 4.00018 17 4.00018 17C4.00018 17 4.00018 17 4.00018 17C4.00018 17 4.00018 17 4.00018 17C4.00018 17 4.00018 17 4.00018 17C4.00018 17 4.00018 17 4.00018 17C4.00017 17 4.00017 17 4.00017 17C4.00017 17 4.00017 17 4.00017 17C4.00017 17 4.00017 17 4.00017 17C4.00017 17 4.00017 17 4.00017 17C4.00017 17 4.00017 17 4.00017 17C4.00016 17 4.00016 17 4.00016 17C4.00016 17 4.00016 17 4.00016 17C4.00016 17 4.00016 17 4.00016 17C4.00016 17 4.00016 17 4.00016 17C4.00016 17 4.00016 17 4.00016 17C4.00016 17 4.00015 17 4.00015 17C4.00015 17 4.00015 17 4.00015 17C4.00015 17 4.00015 17 4.00015 17C4.00015 17 4.00015 17 4.00015 17C4.00015 17 4.00015 17 4.00015 17C4.00015 17 4.00015 17 4.00014 17C4.00014 17 4.00014 17 4.00014 17C4.00014 17 4.00014 17 4.00014 17C4.00014 17 4.00014 17 4.00014 17C4.00014 17 4.00014 17 4.00014 17C4.00014 17 4.00014 17 4.00014 17C4.00013 17 4.00013 17 4.00013 17C4.00013 17 4.00013 17 4.00013 17C4.00013 17 4.00013 17 4.00013 17C4.00013 17 4.00013 17 4.00013 17C4.00013 17 4.00013 17 4.00013 17C4.00013 17 4.00012 17 4.00012 17C4.00012 17 4.00012 17 4.00012 17C4.00012 17 4.00012 17 4.00012 17C4.00012 17 4.00012 17 4.00012 17C4.00012 17 4.00012 17 4.00012 17C4.00012 17 4.00012 17 4.00011 17C4.00011 17 4.00011 17 4.00011 17C4.00011 17 4.00011 17 4.00011 17C4.00011 17 4.00011 17 4.00011 17C4.00011 17 4.00011 17 4.00011 17C4.00011 17 4.00011 17 4.0001 17C4.0001 17 4.0001 17 4.0001 17C4.0001 17 4.0001 17 4.0001 17C4.0001 17 4.0001 17 4.0001 17C4.0001 17 4.0001 17 4.0001 17C4.0001 17 4.0001 17 4.0001 17C4.00009 17 4.00009 17 4.00009 17C4.00009 17 4.00009 17 4.00009 17C4.00009 17 4.00009 17 4.00009 17C4.00009 17 4.00009 17 4.00009 17C4.00009 17 4.00009 17 4.00009 17C4.00009 17 4.00008 17 4.00008 17C4.00008 17 4.00008 17 4.00008 17C4.00008 17 4.00008 17 4.00008 17C4.00008 17 4.00008 17 4.00008 17C4.00008 17 4.00008 17 4.00008 17C4.00008 17 4.00008 17 4.00007 17C4.00007 17 4.00007 17 4.00007 17C4.00007 17 4.00007 17 4.00007 17C4.00007 17 4.00007 17 4.00007 17C4.00007 17 4.00007 17 4.00007 17C4.00007 17 4.00007 17 4.00007 17C4.00006 17 4.00006 17 4.00006 17C4.00006 17 4.00006 17 4.00006 17C4.00006 17 4.00006 17 4.00006 17C4.00006 17 4.00006 17 4.00006 17C4.00006 17 4.00006 17 4.00006 17C4.00006 17 4.00005 17 4.00005 17C4.00005 17 4.00005 17 4.00005 17C4.00005 17 4.00005 17 4.00005 17C4.00005 17 4.00005 17 4.00005 17C4.00005 17 4.00005 17 4.00005 17C4.00005 17 4.00004 17 4.00004 17C4.00004 17 4.00004 17 4.00004 17C4.00004 17 4.00004 17 4.00004 17C4.00004 17 4.00004 17 4.00004 17C4.00004 17 4.00004 17 4.00004 17C4.00004 17 4.00004 17 4.00003 17C4.00003 17 4.00003 17 4.00003 17C4.00003 17 4.00003 17 4.00003 17C4.00003 17 4.00003 17 4.00003 17C4.00003 17 4.00003 17 4.00003 17C4.00003 17 4.00003 17 4.00003 17C4.00002 17 4.00002 17 4.00002 17C4.00002 17 4.00002 17 4.00002 17C4.00002 17 4.00002 17 4.00002 17C4.00002 17 4.00002 17 4.00002 17C4.00002 17 4.00002 17 4.00002 17C4.00002 17 4.00001 17 4.00001 17C4.00001 17 4.00001 17 4.00001 17C4.00001 17 4.00001 17 4.00001 17C4.00001 17 4.00001 17 4.00001 17C4.00001 17 4.00001 17 4.00001 17C4.00001 17 4.00001 17 4 17C4 17 4 17 4 17C4 17 4 17 4 17V19C4 19 4 19 4 19C4 19 4 19 4 19C4.00001 19 4.00001 19 4.00001 19C4.00001 19 4.00001 19 4.00001 19C4.00001 19 4.00001 19 4.00001 19C4.00001 19 4.00001 19 4.00001 19C4.00001 19 4.00001 19 4.00001 19C4.00001 19 4.00002 19 4.00002 19C4.00002 19 4.00002 19 4.00002 19C4.00002 19 4.00002 19 4.00002 19C4.00002 19 4.00002 19 4.00002 19C4.00002 19 4.00002 19 4.00002 19C4.00002 19 4.00002 19 4.00003 19C4.00003 19 4.00003 19 4.00003 19C4.00003 19 4.00003 19 4.00003 19C4.00003 19 4.00003 19 4.00003 19C4.00003 19 4.00003 19 4.00003 19C4.00003 19 4.00003 19 4.00003 19C4.00004 19 4.00004 19 4.00004 19C4.00004 19 4.00004 19 4.00004 19C4.00004 19 4.00004 19 4.00004 19C4.00004 19 4.00004 19 4.00004 19C4.00004 19 4.00004 19 4.00004 19C4.00004 19 4.00005 19 4.00005 19C4.00005 19 4.00005 19 4.00005 19C4.00005 19 4.00005 19 4.00005 19C4.00005 19 4.00005 19 4.00005 19C4.00005 19 4.00005 19 4.00005 19C4.00005 19 4.00006 19 4.00006 19C4.00006 19 4.00006 19 4.00006 19C4.00006 19 4.00006 19 4.00006 19C4.00006 19 4.00006 19 4.00006 19C4.00006 19 4.00006 19 4.00006 19C4.00006 19 4.00006 19 4.00007 19C4.00007 19 4.00007 19 4.00007 19C4.00007 19 4.00007 19 4.00007 19C4.00007 19 4.00007 19 4.00007 19C4.00007 19 4.00007 19 4.00007 19C4.00007 19 4.00007 19 4.00007 19C4.00008 19 4.00008 19 4.00008 19C4.00008 19 4.00008 19 4.00008 19C4.00008 19 4.00008 19 4.00008 19C4.00008 19 4.00008 19 4.00008 19C4.00008 19 4.00008 19 4.00008 19C4.00008 19 4.00009 19 4.00009 19C4.00009 19 4.00009 19 4.00009 19C4.00009 19 4.00009 19 4.00009 19C4.00009 19 4.00009 19 4.00009 19C4.00009 19 4.00009 19 4.00009 19C4.00009 19 4.00009 19 4.0001 19C4.0001 19 4.0001 19 4.0001 19C4.0001 19 4.0001 19 4.0001 19C4.0001 19 4.0001 19 4.0001 19C4.0001 19 4.0001 19 4.0001 19C4.0001 19 4.0001 19 4.0001 19C4.00011 19 4.00011 19 4.00011 19C4.00011 19 4.00011 19 4.00011 19C4.00011 19 4.00011 19 4.00011 19C4.00011 19 4.00011 19 4.00011 19C4.00011 19 4.00011 19 4.00011 19C4.00012 19 4.00012 19 4.00012 19C4.00012 19 4.00012 19 4.00012 19C4.00012 19 4.00012 19 4.00012 19C4.00012 19 4.00012 19 4.00012 19C4.00012 19 4.00012 19 4.00012 19C4.00012 19 4.00013 19 4.00013 19C4.00013 19 4.00013 19 4.00013 19C4.00013 19 4.00013 19 4.00013 19C4.00013 19 4.00013 19 4.00013 19C4.00013 19 4.00013 19 4.00013 19C4.00013 19 4.00013 19 4.00014 19C4.00014 19 4.00014 19 4.00014 19C4.00014 19 4.00014 19 4.00014 19C4.00014 19 4.00014 19 4.00014 19C4.00014 19 4.00014 19 4.00014 19C4.00014 19 4.00014 19 4.00014 19C4.00015 19 4.00015 19 4.00015 19C4.00015 19 4.00015 19 4.00015 19C4.00015 19 4.00015 19 4.00015 19C4.00015 19 4.00015 19 4.00015 19C4.00015 19 4.00015 19 4.00015 19C4.00015 19 4.00016 19 4.00016 19C4.00016 19 4.00016 19 4.00016 19C4.00016 19 4.00016 19 4.00016 19C4.00016 19 4.00016 19 4.00016 19C4.00016 19 4.00016 19 4.00016 19C4.00016 19 4.00016 19 4.00017 19C4.00017 19 4.00017 19 4.00017 19C4.00017 19 4.00017 19 4.00017 19C4.00017 19 4.00017 19 4.00017 19C4.00017 19 4.00017 19 4.00017 19C4.00017 19 4.00017 19 4.00018 19C4.00018 19 4.00018 19 4.00018 19C4.00018 19 4.00018 19 4.00018 19C4.00018 19 4.00018 19 4.00018 19C4.00018 19 4.00018 19 4.00018 19C4.00018 19 4.00018 19 4.00018 19C4.00019 19 4.00019 19 4.00019 19C4.00019 19 4.00019 19 4.00019 19C4.00019 19 4.00019 19 4.00019 19C4.00019 19 4.00019 19 4.00019 19C4.00019 19 4.00019 19 4.00019 19C4.00019 19 4.0002 19 4.0002 19C4.0002 19 4.0002 19 4.0002 19C4.0002 19 4.0002 19 4.0002 19C4.0002 19 4.0002 19 4.0002 19C4.0002 19 4.0002 19 4.0002 19C4.0002 19 4.0002 19 4.00021 19C4.00021 19 4.00021 19 4.00021 19C4.00021 19 4.00021 19 4.00021 19C4.00021 19 4.00021 19 4.00021 19C4.00021 19 4.00021 19 4.00021 19C4.00021 19 4.00021 19 4.00021 19C4.00022 19 4.00022 19 4.00022 19C4.00022 19 4.00022 19 4.00022 19C4.00022 19 4.00022 19 4.00022 19C4.00022 19 4.00022 19 4.00022 19C4.00022 19 4.00022 19 4.00022 19C4.00022 19 4.00023 19 4.00023 19C4.00023 19 4.00023 19 4.00023 19C4.00023 19 4.00023 19 4.00023 19C4.00023 19 4.00023 19 4.00023 19C4.00023 19 4.00023 19 4.00023 19C4.00023 19 4.00024 19 4.00024 19C4.00024 19 4.00024 19 4.00024 19C4.00024 19 4.00024 19 4.00024 19C4.00024 19 4.00024 19 4.00024 19C4.00024 19 4.00024 19 4.00024 19C4.00024 19 4.00024 19 4.00025 19C4.00025 19 4.00025 19 4.00025 19C4.00025 19 4.00025 19 4.00025 19C4.00025 19 4.00025 19 4.00025 19C4.00025 19 4.00025 19 4.00025 19C4.00025 19 4.00025 19 4.00025 19C4.00026 19 4.00026 19 4.00026 19C4.00026 19 4.00026 19 4.00026 19C4.00026 19 4.00026 19 4.00026 19C4.00026 19 4.00026 19 4.00026 19C4.00026 19 4.00026 19 4.00026 19C4.00026 19 4.00027 19 4.00027 19C4.00027 19 4.00027 19 4.00027 19C4.00027 19 4.00027 19 4.00027 19C4.00027 19 4.00027 19 4.00027 19C4.00027 19 4.00027 19 4.00027 19C4.00027 19 4.00027 19 4.00028 19C4.00028 19 4.00028 19 4.00028 19C4.00028 19 4.00028 19 4.00028 19C4.00028 19 4.00028 19 4.00028 19C4.00028 19 4.00028 19 4.00028 19C4.00028 19 4.00028 19 4.00028 19C4.00029 19 4.00029 19 4.00029 19C4.00029 19 4.00029 19 4.00029 19C4.00029 19 4.00029 19 4.00029 19C4.00029 19 4.00029 19 4.00029 19C4.00029 19 4.00029 19 4.00029 19C4.0003 19 4.0003 19 4.0003 19C4.0003 19 4.0003 19 4.0003 19C4.0003 19 4.0003 19 4.0003 19C4.0003 19 4.0003 19 4.0003 19C4.0003 19 4.0003 19 4.0003 19C4.0003 19 4.00031 19 4.00031 19C4.00031 19 4.00031 19 4.00031 19C4.00031 19 4.00031 19 4.00031 19C4.00031 19 4.00031 19 4.00031 19C4.00031 19 4.00031 19 4.00031 19C4.00031 19 4.00031 19 4.00032 19C4.00032 19 4.00032 19 4.00032 19C4.00032 19 4.00032 19 4.00032 19C4.00032 19 4.00032 19 4.00032 19C4.00032 19 4.00032 19 4.00032 19C4.00032 19 4.00032 19 4.00032 19C4.00033 19 4.00033 19 4.00033 19C4.00033 19 4.00033 19 4.00033 19C4.00033 19 4.00033 19 4.00033 19C4.00033 19 4.00033 19 4.00033 19C4.00033 19 4.00033 19 4.00033 19C4.00033 19 4.00034 19 4.00034 19C4.00034 19 4.00034 19 4.00034 19C4.00034 19 4.00034 19 4.00034 19C4.00034 19 4.00034 19 4.00034 19C4.00034 19 4.00034 19 4.00034 19C4.00034 19 4.00034 19 4.00035 19C4.00035 19 4.00035 19 4.00035 19C4.00035 19 4.00035 19 4.00035 19C4.00035 19 4.00035 19 4.00035 19C4.00035 19 4.00035 19 4.00035 19C4.00035 19 4.00035 19 4.00036 19C4.00036 19 4.00036 19 4.00036 19C4.00036 19 4.00036 19 4.00036 19C4.00036 19 4.00036 19 4.00036 19C4.00036 19 4.00036 19 4.00036 19C4.00036 19 4.00036 19 4.00036 19C4.00037 19 4.00037 19 4.00037 19C4.00037 19 4.00037 19 4.00037 19C4.00037 19 4.00037 19 4.00037 19C4.00037 19 4.00037 19 4.00037 19C4.00037 19 4.00037 19 4.00037 19C4.00037 19 4.00038 19 4.00038 19C4.00038 19 4.00038 19 4.00038 19C4.00038 19 4.00038 19 4.00038 19C4.00038 19 4.00038 19 4.00038 19C4.00038 19 4.00038 19 4.00038 19C4.00038 19 4.00038 19 4.00039 19C4.00039 19 4.00039 19 4.00039 19C4.00039 19 4.00039 19 4.00039 19C4.00039 19 4.00039 19 4.00039 19C4.00039 19 4.00039 19 4.00039 19C4.00039 19 4.00039 19 4.00039 19C4.0004 19 4.0004 19 4.0004 19C4.0004 19 4.0004 19 4.0004 19C4.0004 19 4.0004 19 4.0004 19C4.0004 19 4.0004 19 4.0004 19C4.0004 19 4.0004 19 4.0004 19C4.0004 19 4.00041 19 4.00041 19C4.00041 19 4.00041 19 4.00041 19C4.00041 19 4.00041 19 4.00041 19C4.00041 19 4.00041 19 4.00041 19C4.00041 19 4.00041 19 4.00041 19C4.00041 19 4.00042 19 4.00042 19C4.00042 19 4.00042 19 4.00042 19C4.00042 19 4.00042 19 4.00042 19C4.00042 19 4.00042 19 4.00042 19C4.00042 19 4.00042 19 4.00042 19C4.00042 19 4.00042 19 4.00043 19C4.00043 19 4.00043 19 4.00043 19C4.00043 19 4.00043 19 4.00043 19C4.00043 19 4.00043 19 4.00043 19C4.00043 19 4.00043 19 4.00043 19C4.00043 19 4.00043 19 4.00043 19C4.00044 19 4.00044 19 4.00044 19C4.00044 19 4.00044 19 4.00044 19C4.00044 19 4.00044 19 4.00044 19C4.00044 19 4.00044 19 4.00044 19C4.00044 19 4.00044 19 4.00044 19C4.00044 19 4.00045 19 4.00045 19C4.00045 19 4.00045 19 4.00045 19C4.00045 19 4.00045 19 4.00045 19C4.00045 19 4.00045 19 4.00045 19C4.00045 19 4.00045 19 4.00045 19C4.00045 19 4.00045 19 4.00046 19C4.00046 19 4.00046 19 4.00046 19C4.00046 19 4.00046 19 4.00046 19C4.00046 19 4.00046 19 4.00046 19C4.00046 19 4.00046 19 4.00046 19C4.00046 19 4.00046 19 4.00046 19C4.00047 19 4.00047 19 4.00047 19C4.00047 19 4.00047 19 4.00047 19C4.00047 19 4.00047 19 4.00047 19C4.00047 19 4.00047 19 4.00047 19C4.00047 19 4.00047 19 4.00047 19C4.00048 19 4.00048 19 4.00048 19C4.00048 19 4.00048 19 4.00048 19C4.00048 19 4.00048 19 4.00048 19C4.00048 19 4.00048 19 4.00048 19C4.00048 19 4.00048 19 4.00048 19C4.00048 19 4.00049 19 4.00049 19C4.00049 19 4.00049 19 4.00049 19C4.00049 19 4.00049 19 4.00049 19C4.00049 19 4.00049 19 4.00049 19C4.00049 19 4.00049 19 4.00049 19C4.00049 19 4.00049 19 4.0005 19C4.0005 19 4.0005 19 4.0005 19C4.0005 19 4.0005 19 4.0005 19C4.0005 19 4.0005 19 4.0005 19C4.0005 19 4.0005 19 4.0005 19C4.0005 19 4.0005 19 4.0005 19C4.00051 19 4.00051 19 4.00051 19C4.00051 19 4.00051 19 4.00051 19C4.00051 19 4.00051 19 4.00051 19C4.00051 19 4.00051 19 4.00051 19C4.00051 19 4.00051 19 4.00051 19C4.00051 19 4.00052 19 4.00052 19C4.00052 19 4.00052 19 4.00052 19C4.00052 19 4.00052 19 4.00052 19C4.00052 19 4.00052 19 4.00052 19C4.00052 19 4.00052 19 4.00052 19C4.00052 19 4.00052 19 4.00053 19C4.00053 19 4.00053 19 4.00053 19C4.00053 19 4.00053 19 4.00053 19C4.00053 19 4.00053 19 4.00053 19C4.00053 19 4.00053 19 4.00053 19C4.00053 19 4.00053 19 4.00054 19C4.00054 19 4.00054 19 4.00054 19C4.00054 19 4.00054 19 4.00054 19C4.00054 19 4.00054 19 4.00054 19C4.00054 19 4.00054 19 4.00054 19C4.00054 19 4.00054 19 4.00054 19C4.00055 19 4.00055 19 4.00055 19C4.00055 19 4.00055 19 4.00055 19C4.00055 19 4.00055 19 4.00055 19C4.00055 19 4.00055 19 4.00055 19C4.00055 19 4.00055 19 4.00055 19C4.00055 19 4.00056 19 4.00056 19C4.00056 19 4.00056 19 4.00056 19C4.00056 19 4.00056 19 4.00056 19C4.00056 19 4.00056 19 4.00056 19C4.00056 19 4.00056 19 4.00056 19C4.00056 19 4.00056 19 4.00057 19C4.00057 19 4.00057 19 4.00057 19C4.00057 19 4.00057 19 4.00057 19C4.00057 19 4.00057 19 4.00057 19C4.00057 19 4.00057 19 4.00057 19C4.00057 19 4.00057 19 4.00057 19C4.00058 19 4.00058 19 4.00058 19C4.00058 19 4.00058 19 4.00058 19C4.00058 19 4.00058 19 4.00058 19C4.00058 19 4.00058 19 4.00058 19C4.00058 19 4.00058 19 4.00058 19C4.00058 19 4.00059 19 4.00059 19C4.00059 19 4.00059 19 4.00059 19C4.00059 19 4.00059 19 4.00059 19C4.00059 19 4.00059 19 4.00059 19C4.00059 19 4.00059 19 4.00059 19C4.00059 19 4.0006 19 4.0006 19C4.0006 19 4.0006 19 4.0006 19C4.0006 19 4.0006 19 4.0006 19C4.0006 19 4.0006 19 4.0006 19C4.0006 19 4.0006 19 4.0006 19C4.0006 19 4.0006 19 4.00061 19C4.00061 19 4.00061 19 4.00061 19C4.00061 19 4.00061 19 4.00061 19C4.00061 19 4.00061 19 4.00061 19C4.00061 19 4.00061 19 4.00061 19C4.00061 19 4.00061 19 4.00061 19C4.00062 19 4.00062 19 4.00062 19C4.00062 19 4.00062 19 4.00062 19C4.00062 19 4.00062 19 4.00062 19C4.00062 19 4.00062 19 4.00062 19C4.00062 19 4.00062 19 4.00062 19C4.00062 19 4.00063 19 4.00063 19C4.00063 19 4.00063 19 4.00063 19C4.00063 19 4.00063 19 4.00063 19C4.00063 19 4.00063 19 4.00063 19C4.00063 19 4.00063 19 4.00063 19C4.00063 19 4.00063 19 4.00064 19C4.00064 19 4.00064 19 4.00064 19C4.00064 19 4.00064 19 4.00064 19C4.00064 19 4.00064 19 4.00064 19C4.00064 19 4.00064 19 4.00064 19C4.00064 19 4.00064 19 4.00064 19C4.00065 19 4.00065 19 4.00065 19C4.00065 19 4.00065 19 4.00065 19C4.00065 19 4.00065 19 4.00065 19C4.00065 19 4.00065 19 4.00065 19C4.00065 19 4.00065 19 4.00065 19C4.00066 19 4.00066 19 4.00066 19C4.00066 19 4.00066 19 4.00066 19C4.00066 19 4.00066 19 4.00066 19C4.00066 19 4.00066 19 4.00066 19C4.00066 19 4.00066 19 4.00066 19C4.00066 19 4.00067 19 4.00067 19C4.00067 19 4.00067 19 4.00067 19C4.00067 19 4.00067 19 4.00067 19C4.00067 19 4.00067 19 4.00067 19C4.00067 19 4.00067 19 4.00067 19C4.00067 19 4.00067 19 4.00068 19C4.00068 19 4.00068 19 4.00068 19C4.00068 19 4.00068 19 4.00068 19C4.00068 19 4.00068 19 4.00068 19C4.00068 19 4.00068 19 4.00068 19C4.00068 19 4.00068 19 4.00068 19C4.00069 19 4.00069 19 4.00069 19C4.00069 19 4.00069 19 4.00069 19C4.00069 19 4.00069 19 4.00069 19C4.00069 19 4.00069 19 4.00069 19C4.00069 19 4.00069 19 4.00069 19C4.00069 19 4.0007 19 4.0007 19C4.0007 19 4.0007 19 4.0007 19C4.0007 19 4.0007 19 4.0007 19C4.0007 19 4.0007 19 4.0007 19C4.0007 19 4.0007 19 4.0007 19C4.0007 19 4.0007 19 4.00071 19C4.00071 19 4.00071 19 4.00071 19C4.00071 19 4.00071 19 4.00071 19C4.00071 19 4.00071 19 4.00071 19C4.00071 19 4.00071 19 4.00071 19C4.00071 19 4.00071 19 4.00072 19C4.00072 19 4.00072 19 4.00072 19C4.00072 19 4.00072 19 4.00072 19C4.00072 19 4.00072 19 4.00072 19C4.00072 19 4.00072 19 4.00072 19C4.00072 19 4.00072 19 4.00072 19C4.00073 19 4.00073 19 4.00073 19C4.00073 19 4.00073 19 4.00073 19C4.00073 19 4.00073 19 4.00073 19C4.00073 19 4.00073 19 4.00073 19C4.00073 19 4.00073 19 4.00073 19C4.00073 19 4.00074 19 4.00074 19C4.00074 19 4.00074 19 4.00074 19C4.00074 19 4.00074 19 4.00074 19C4.00074 19 4.00074 19 4.00074 19C4.00074 19 4.00074 19 4.00074 19C4.00074 19 4.00074 19 4.00075 19C4.00075 19 4.00075 19 4.00075 19C4.00075 19 4.00075 19 4.00075 19C4.00075 19 4.00075 19 4.00075 19C4.00075 19 4.00075 19 4.00075 19C4.00075 19 4.00075 19 4.00075 19C4.00076 19 4.00076 19 4.00076 19C4.00076 19 4.00076 19 4.00076 19C4.00076 19 4.00076 19 4.00076 19C4.00076 19 4.00076 19 4.00076 19C4.00076 19 4.00076 19 4.00076 19C4.00076 19 4.00077 19 4.00077 19C4.00077 19 4.00077 19 4.00077 19C4.00077 19 4.00077 19 4.00077 19C4.00077 19 4.00077 19 4.00077 19C4.00077 19 4.00077 19 4.00077 19C4.00077 19 4.00078 19 4.00078 19C4.00078 19 4.00078 19 4.00078 19C4.00078 19 4.00078 19 4.00078 19C4.00078 19 4.00078 19 4.00078 19C4.00078 19 4.00078 19 4.00078 19C4.00078 19 4.00078 19 4.00079 19C4.00079 19 4.00079 19 4.00079 19C4.00079 19 4.00079 19 4.00079 19C4.00079 19 4.00079 19 4.00079 19C4.00079 19 4.00079 19 4.00079 19C4.00079 19 4.00079 19 4.00079 19C4.0008 19 4.0008 19 4.0008 19C4.0008 19 4.0008 19 4.0008 19C4.0008 19 4.0008 19 4.0008 19C4.0008 19 4.0008 19 4.0008 19C4.0008 19 4.0008 19 4.0008 19C4.0008 19 4.00081 19 4.00081 19C4.00081 19 4.00081 19 4.00081 19C4.00081 19 4.00081 19 4.00081 19C4.00081 19 4.00081 19 4.00081 19C4.00081 19 4.00081 19 4.00081 19C4.00081 19 4.00081 19 4.00082 19C4.00082 19 4.00082 19 4.00082 19C4.00082 19 4.00082 19 4.00082 19C4.00082 19 4.00082 19 4.00082 19C4.00082 19 4.00082 19 4.00082 19C4.00082 19 4.00082 19 4.00082 19C4.00083 19 4.00083 19 4.00083 19C4.00083 19 4.00083 19 4.00083 19C4.00083 19 4.00083 19 4.00083 19C4.00083 19 4.00083 19 4.00083 19C4.00083 19 4.00083 19 4.00083 19C4.00084 19 4.00084 19 4.00084 19C4.00084 19 4.00084 19 4.00084 19C4.00084 19 4.00084 19 4.00084 19C4.00084 19 4.00084 19 4.00084 19C4.00084 19 4.00084 19 4.00084 19C4.00084 19 4.00085 19 4.00085 19C4.00085 19 4.00085 19 4.00085 19C4.00085 19 4.00085 19 4.00085 19C4.00085 19 4.00085 19 4.00085 19C4.00085 19 4.00085 19 4.00085 19C4.00085 19 4.00085 19 4.00086 19C4.00086 19 4.00086 19 4.00086 19C4.00086 19 4.00086 19 4.00086 19C4.00086 19 4.00086 19 4.00086 19C4.00086 19 4.00086 19 4.00086 19C4.00086 19 4.00086 19 4.00086 19C4.00087 19 4.00087 19 4.00087 19C4.00087 19 4.00087 19 4.00087 19C4.00087 19 4.00087 19 4.00087 19C4.00087 19 4.00087 19 4.00087 19C4.00087 19 4.00087 19 4.00087 19C4.00087 19 4.00088 19 4.00088 19C4.00088 19 4.00088 19 4.00088 19C4.00088 19 4.00088 19 4.00088 19C4.00088 19 4.00088 19 4.00088 19C4.00088 19 4.00088 19 4.00088 19C4.00088 19 4.00088 19 4.00089 19C4.00089 19 4.00089 19 4.00089 19C4.00089 19 4.00089 19 4.00089 19C4.00089 19 4.00089 19 4.00089 19C4.00089 19 4.00089 19 4.00089 19C4.00089 19 4.00089 19 4.0009 19C4.0009 19 4.0009 19 4.0009 19C4.0009 19 4.0009 19 4.0009 19C4.0009 19 4.0009 19 4.0009 19C4.0009 19 4.0009 19 4.0009 19C4.0009 19 4.0009 19 4.0009 19C4.00091 19 4.00091 19 4.00091 19C4.00091 19 4.00091 19 4.00091 19C4.00091 19 4.00091 19 4.00091 19C4.00091 19 4.00091 19 4.00091 19C4.00091 19 4.00091 19 4.00091 19C4.00091 19 4.00092 19 4.00092 19C4.00092 19 4.00092 19 4.00092 19C4.00092 19 4.00092 19 4.00092 19C4.00092 19 4.00092 19 4.00092 19C4.00092 19 4.00092 19 4.00092 19C4.00092 19 4.00092 19 4.00093 19C4.00093 19 4.00093 19 4.00093 19C4.00093 19 4.00093 19 4.00093 19C4.00093 19 4.00093 19 4.00093 19C4.00093 19 4.00093 19 4.00093 19C4.00093 19 4.00093 19 4.00093 19C4.00094 19 4.00094 19 4.00094 19C4.00094 19 4.00094 19 4.00094 19C4.00094 19 4.00094 19 4.00094 19C4.00094 19 4.00094 19 4.00094 19C4.00094 19 4.00094 19 4.00094 19C4.00094 19 4.00095 19 4.00095 19C4.00095 19 4.00095 19 4.00095 19C4.00095 19 4.00095 19 4.00095 19C4.00095 19 4.00095 19 4.00095 19C4.00095 19 4.00095 19 4.00095 19C4.00095 19 4.00096 19 4.00096 19C4.00096 19 4.00096 19 4.00096 19C4.00096 19 4.00096 19 4.00096 19C4.00096 19 4.00096 19 4.00096 19C4.00096 19 4.00096 19 4.00096 19C4.00096 19 4.00096 19 4.00097 19C4.00097 19 4.00097 19 4.00097 19C4.00097 19 4.00097 19 4.00097 19C4.00097 19 4.00097 19 4.00097 19V17Z" fill="white" mask="url(#path-1-inside-1_4_126)"/>
</g>
<defs>
<filter id="filter0_d_4_126" x="0" y="0" width="24.001" height="28" filterUnits="userSpaceOnUse" color-interpolation-filters="sRGB">
<feFlood flood-opacity="0" result="BackgroundImageFix"/>
<feColorMatrix in="SourceAlpha" type="matrix" values="0 0 0 0 0 0 0 0 0 0 0 0 0 0 0 0 0 0 127 0" result="hardAlpha"/>
<feOffset dy="4"/>
<feGaussianBlur stdDeviation="2"/>
<feComposite in2="hardAlpha" operator="out"/>
<feColorMatrix type="matrix" values="0 0 0 0 0 0 0 0 0 0 0 0 0 0 0 0 0 0 0.25 0"/>
<feBlend mode="normal" in2="BackgroundImageFix" result="effect1_dropShadow_4_126"/>
<feBlend mode="normal" in="SourceGraphic" in2="effect1_dropShadow_4_126" result="shape"/>
</filter>
</defs>
</svg>
