<svg width="20" height="20" viewBox="0 0 20 20" fill="none" xmlns="http://www.w3.org/2000/svg">
<circle cx="10.2065" cy="10" r="5.5" fill="#FFE189" stroke="#FFE189"/>
<rect x="9.70654" y="0.5" width="1" height="2" rx="0.5" fill="#D9D9D9" stroke="#FFE189"/>
<rect x="9.70654" y="17.5" width="1" height="2" rx="0.5" fill="#D9D9D9" stroke="#FFE189"/>
<rect x="2.92891" y="3.50168" width="1" height="2" rx="0.5" transform="rotate(-45 2.92891 3.50168)" fill="#D9D9D9" stroke="#FFE189"/>
<rect x="14.9497" y="15.5225" width="1" height="2" rx="0.5" transform="rotate(-45 14.9497 15.5225)" fill="#D9D9D9" stroke="#FFE189"/>
<rect x="19.5" y="9.36563" width="1" height="2" rx="0.5" transform="rotate(90 19.5 9.36563)" fill="#D9D9D9" stroke="#FFE189"/>
<rect x="2.5" y="9.36563" width="1" height="2" rx="0.5" transform="rotate(90 2.5 9.36563)" fill="#D9D9D9" stroke="#FFE189"/>
<rect x="3.63599" y="16.9367" width="1" height="2" rx="0.5" transform="rotate(-135 3.63599 16.9367)" fill="#D9D9D9" stroke="#FFE189"/>
<rect x="15.6568" y="4.91591" width="1" height="2" rx="0.5" transform="rotate(-135 15.6568 4.91591)" fill="#D9D9D9" stroke="#FFE189"/>
</svg>
